<svg width="132" height="30" viewBox="0 0 132 30" fill="none" xmlns="http://www.w3.org/2000/svg">
<path d="M9.69623 23.104C8.86423 23.104 8.09623 22.9867 7.39223 22.752C6.70957 22.5387 6.0909 22.2187 5.53623 21.792C5.0029 21.3653 4.54423 20.864 4.16023 20.288H4.09623L3.74423 22.72H0.000234485V0H4.32023V8.992C4.83223 8.30933 5.52557 7.72267 6.40024 7.232C7.2749 6.72 8.35223 6.464 9.63223 6.464C11.1469 6.464 12.4802 6.82667 13.6322 7.552C14.7842 8.27733 15.6802 9.26933 16.3202 10.528C16.9816 11.7653 17.3122 13.1947 17.3122 14.816C17.3122 16.3947 16.9816 17.8133 16.3202 19.072C15.6802 20.3307 14.7842 21.3227 13.6322 22.048C12.5016 22.752 11.1896 23.104 9.69623 23.104ZM8.57623 19.456C9.42957 19.456 10.1762 19.2533 10.8162 18.848C11.4776 18.4427 11.9896 17.8987 12.3522 17.216C12.7362 16.512 12.9282 15.7013 12.9282 14.784C12.9282 13.8667 12.7362 13.056 12.3522 12.352C11.9896 11.648 11.4776 11.104 10.8162 10.72C10.1762 10.3147 9.42957 10.112 8.57623 10.112C7.7229 10.112 6.96557 10.3147 6.30423 10.72C5.6429 11.104 5.1309 11.648 4.76823 12.352C4.40557 13.056 4.22423 13.8667 4.22423 14.784C4.22423 15.7013 4.40557 16.512 4.76823 17.216C5.1309 17.8987 5.6429 18.4427 6.30423 18.848C6.96557 19.2533 7.7229 19.456 8.57623 19.456ZM24.5382 23.104C23.2369 23.104 22.1596 22.8907 21.3062 22.464C20.4529 22.0373 19.8236 21.4613 19.4182 20.736C19.0129 20.0107 18.8102 19.2107 18.8102 18.336C18.8102 17.3547 19.0556 16.4907 19.5462 15.744C20.0582 14.9973 20.8262 14.4213 21.8502 14.016C22.8742 13.5893 24.1649 13.376 25.7222 13.376H29.7222C29.7222 12.5867 29.6049 11.9467 29.3702 11.456C29.1569 10.944 28.8156 10.56 28.3462 10.304C27.8982 10.048 27.3222 9.92 26.6182 9.92C25.7862 9.92 25.0716 10.112 24.4742 10.496C23.8982 10.8587 23.5356 11.424 23.3862 12.192H19.1942C19.3222 11.0187 19.7062 10.0053 20.3462 9.152C21.0076 8.29867 21.8822 7.63733 22.9702 7.168C24.0582 6.69867 25.2742 6.464 26.6182 6.464C28.1542 6.464 29.4769 6.72 30.5862 7.232C31.6956 7.72267 32.5489 8.45867 33.1462 9.44C33.7436 10.4 34.0422 11.5733 34.0422 12.96V22.72H30.4262L29.9462 20.256H29.8822C29.6049 20.704 29.2849 21.1093 28.9222 21.472C28.5596 21.8133 28.1542 22.112 27.7062 22.368C27.2796 22.6027 26.7996 22.784 26.2662 22.912C25.7329 23.04 25.1569 23.104 24.5382 23.104ZM25.7542 19.776C26.3302 19.776 26.8422 19.68 27.2902 19.488C27.7382 19.2747 28.1116 18.9973 28.4102 18.656C28.7302 18.3147 28.9756 17.92 29.1462 17.472C29.3382 17.0027 29.4662 16.5227 29.5302 16.032H26.2022C25.5409 16.032 24.9969 16.1173 24.5702 16.288C24.1649 16.4373 23.8662 16.6613 23.6742 16.96C23.4822 17.2373 23.3862 17.568 23.3862 17.952C23.3862 18.336 23.4822 18.6667 23.6742 18.944C23.8662 19.2213 24.1436 19.4347 24.5062 19.584C24.8689 19.712 25.2849 19.776 25.7542 19.776ZM36.203 22.72V6.848H39.947L40.299 9.472H40.363C40.875 8.55467 41.579 7.82933 42.475 7.296C43.371 6.74133 44.4697 6.464 45.771 6.464C47.0937 6.464 48.2137 6.752 49.131 7.328C50.0483 7.88267 50.7417 8.704 51.211 9.792C51.7017 10.88 51.947 12.224 51.947 13.824V22.72H47.659V14.208C47.659 12.8853 47.3923 11.872 46.859 11.168C46.3257 10.464 45.4723 10.112 44.299 10.112C43.5737 10.112 42.923 10.2933 42.347 10.656C41.7923 10.9973 41.3443 11.4987 41.003 12.16C40.683 12.8 40.523 13.5893 40.523 14.528V22.72H36.203ZM66.63 29.44V20.576C66.118 21.2587 65.4247 21.856 64.55 22.368C63.6753 22.8587 62.598 23.104 61.318 23.104C59.8033 23.104 58.47 22.7413 57.318 22.016C56.166 21.2907 55.2593 20.2987 54.598 19.04C53.958 17.7813 53.638 16.3627 53.638 14.784C53.638 13.1627 53.958 11.7333 54.598 10.496C55.2593 9.23733 56.1553 8.256 57.286 7.552C58.438 6.82667 59.7607 6.464 61.254 6.464C62.086 6.464 62.8433 6.58133 63.526 6.816C64.23 7.02933 64.8487 7.34933 65.382 7.776C65.9367 8.18133 66.406 8.68267 66.79 9.28H66.854L67.206 6.848H70.95V29.44H66.63ZM62.374 19.456C63.2273 19.456 63.9847 19.264 64.646 18.88C65.3073 18.4747 65.8193 17.92 66.182 17.216C66.5447 16.512 66.726 15.7013 66.726 14.784C66.726 13.8667 66.5447 13.0667 66.182 12.384C65.8193 11.68 65.3073 11.1253 64.646 10.72C63.9847 10.3147 63.2167 10.112 62.342 10.112C61.51 10.112 60.7633 10.3147 60.102 10.72C59.4407 11.1253 58.9287 11.68 58.566 12.384C58.2033 13.0667 58.022 13.8667 58.022 14.784C58.022 15.7013 58.2033 16.512 58.566 17.216C58.9287 17.92 59.4407 18.4747 60.102 18.88C60.7633 19.264 61.5207 19.456 62.374 19.456ZM79.392 23.104C78.0907 23.104 76.9707 22.8267 76.032 22.272C75.1147 21.7173 74.4107 20.896 73.92 19.808C73.4507 18.6987 73.216 17.344 73.216 15.744V6.848H77.504V15.36C77.504 16.6827 77.7707 17.696 78.304 18.4C78.8373 19.104 79.6907 19.456 80.864 19.456C81.5893 19.456 82.24 19.2853 82.816 18.944C83.392 18.5813 83.84 18.08 84.16 17.44C84.48 16.7787 84.64 15.9787 84.64 15.04V6.848H88.96V22.72H85.216L84.864 20.128H84.8C84.3093 21.024 83.6053 21.7493 82.688 22.304C81.792 22.8373 80.6933 23.104 79.392 23.104ZM99.131 23.104C97.5096 23.104 96.0696 22.7627 94.811 22.08C93.5736 21.3973 92.603 20.4373 91.899 19.2C91.195 17.9627 90.843 16.544 90.843 14.944C90.843 13.28 91.1843 11.8187 91.867 10.56C92.571 9.28 93.5416 8.27733 94.779 7.552C96.0376 6.82667 97.499 6.464 99.163 6.464C100.742 6.464 102.128 6.80533 103.323 7.488C104.539 8.17067 105.478 9.10933 106.139 10.304C106.822 11.4773 107.163 12.8107 107.163 14.304C107.163 14.5173 107.163 14.7627 107.163 15.04C107.163 15.296 107.142 15.5627 107.099 15.84H93.915V13.184H102.779C102.715 12.2027 102.342 11.4133 101.659 10.816C100.998 10.2187 100.166 9.92 99.163 9.92C98.4163 9.92 97.7336 10.0907 97.115 10.432C96.4963 10.752 96.0056 11.2427 95.643 11.904C95.2803 12.5653 95.099 13.408 95.099 14.432V15.36C95.099 16.2347 95.2696 16.992 95.611 17.632C95.9523 18.2507 96.4216 18.7307 97.019 19.072C97.6376 19.4133 98.331 19.584 99.099 19.584C99.8883 19.584 100.55 19.4133 101.083 19.072C101.616 18.7093 102.022 18.2507 102.299 17.696H106.715C106.395 18.6987 105.883 19.616 105.179 20.448C104.475 21.2587 103.611 21.9093 102.587 22.4C101.563 22.8693 100.411 23.104 99.131 23.104ZM116.702 23.104C115.081 23.104 113.641 22.7627 112.382 22.08C111.145 21.3973 110.174 20.4373 109.47 19.2C108.766 17.9627 108.414 16.544 108.414 14.944C108.414 13.28 108.756 11.8187 109.438 10.56C110.142 9.28 111.113 8.27733 112.35 7.552C113.609 6.82667 115.07 6.464 116.734 6.464C118.313 6.464 119.7 6.80533 120.894 7.488C122.11 8.17067 123.049 9.10933 123.71 10.304C124.393 11.4773 124.734 12.8107 124.734 14.304C124.734 14.5173 124.734 14.7627 124.734 15.04C124.734 15.296 124.713 15.5627 124.67 15.84H111.486V13.184H120.35C120.286 12.2027 119.913 11.4133 119.23 10.816C118.569 10.2187 117.737 9.92 116.734 9.92C115.988 9.92 115.305 10.0907 114.686 10.432C114.068 10.752 113.577 11.2427 113.214 11.904C112.852 12.5653 112.67 13.408 112.67 14.432V15.36C112.67 16.2347 112.841 16.992 113.182 17.632C113.524 18.2507 113.993 18.7307 114.59 19.072C115.209 19.4133 115.902 19.584 116.67 19.584C117.46 19.584 118.121 19.4133 118.654 19.072C119.188 18.7093 119.593 18.2507 119.87 17.696H124.286C123.966 18.6987 123.454 19.616 122.75 20.448C122.046 21.2587 121.182 21.9093 120.158 22.4C119.134 22.8693 117.982 23.104 116.702 23.104ZM128.673 22.88C127.884 22.88 127.244 22.6453 126.753 22.176C126.263 21.6853 126.017 21.0987 126.017 20.416C126.017 19.712 126.263 19.1147 126.753 18.624C127.244 18.1333 127.884 17.888 128.673 17.888C129.441 17.888 130.071 18.1333 130.561 18.624C131.052 19.1147 131.297 19.712 131.297 20.416C131.297 21.0987 131.052 21.6853 130.561 22.176C130.071 22.6453 129.441 22.88 128.673 22.88Z" fill="#5BB5A2"/>
</svg>
